Coordinates
version=1
nRows=12
nColumns=42
inDegrees=yes

Units are S.I. units (second, meters, Newtons, ...)
If the header above contains a line with 'inDegrees', this indicates whether rotational values are in degrees (yes) or radians (no).

endheader
time	pelvis_tilt	pelvis_list	pelvis_rotation	pelvis_tx	pelvis_ty	pelvis_tz	hip_flexion_r	hip_adduction_r	hip_rotation_r	knee_angle_r	knee_adduction_r	knee_angle_r_beta	ankle_angle_r	subtalar_angle_r	mtp_angle_r	hip_flexion_l	hip_adduction_l	hip_rotation_l	knee_angle_l	knee_adduction_l	knee_angle_l_beta	ankle_angle_l	subtalar_angle_l	mtp_angle_l	lumbar_extension	lumbar_bending	lumbar_rotation	arm_flex_r	arm_add_r	arm_rot_r	elbow_flex_r	pro_sup_r	wrist_flex_r	wrist_dev_r	arm_flex_l	arm_add_l	arm_rot_l	elbow_flex_l	pro_sup_l	wrist_flex_l	wrist_dev_l
      0.00000000	     -7.16713747	     -1.83169595	      3.19514064	     -1.78208296	      0.96060900	     -0.10820088	     16.52795960	      0.89148700	     -7.31169918	     58.87819786	     -0.51901540	      1.02761841	      4.66193670	    -17.19748107	     -9.71577816	     16.14628972	      2.14911804	      4.52669681	     13.27630234	     -3.45665523	      0.23171519	     10.06676347	      0.91733452	     -9.71577816	     -3.62007357	     -2.70736545	     -3.98108752	     -9.10514872	     -9.95847061	     -0.50333616	     24.75888716	     90.00000001	      0.00000000	      0.00000000	      2.84278564	    -17.13892311	      2.13789986	     31.17919035	     90.00000001	      0.00000000	      0.00000000
      0.01000000	     -7.15374240	     -2.01042605	      3.33185710	     -1.77187468	      0.96161581	     -0.10920147	     18.01151830	      0.99882398	     -6.88935098	     58.77553739	     -0.28048120	      1.02582665	      5.33800554	    -17.06241717	     -9.68233481	     15.09809016	      2.07869333	      4.67016854	     12.64132968	     -3.67367734	      0.22063282	     10.46080777	      1.09357403	     -9.68233481	     -3.54483382	     -2.33073826	     -4.28046561	     -9.44231514	     -9.77477931	     -0.52731758	     24.06380145	     90.00000001	      0.00000000	      0.00000000	      3.57421604	    -17.18349490	      2.34447116	     31.91387718	     90.00000001	      0.00000000	      0.00000000
      0.02000000	     -7.16705890	     -2.11053934	      3.45708633	     -1.76150841	      0.96239704	     -0.11019197	     19.41842457	      1.00498911	     -6.34257815	     58.35042648	      0.08040475	      1.01840706	      5.88086759	    -16.99277350	     -9.65002529	     14.01660308	      2.07887478	      4.82500261	     11.91297153	     -3.87121086	      0.20792058	     10.80193961	      1.32503202	     -9.65002529	     -3.41871981	     -2.05407393	     -4.54803986	     -9.82914617	     -9.57190242	     -0.71326058	     23.39943602	     90.00000001	      0.00000000	      0.00000000	      4.21809811	    -17.29599824	      2.63342666	     32.77366685	     90.00000001	      0.00000000	      0.00000000
      0.03000000	     -6.88628495	     -2.04516861	      3.56250499	     -1.75124746	      0.96342930	     -0.11096992	     20.39664672	      0.86967491	     -5.47652680	     57.62547604	      0.66118589	      1.00575429	      6.15717066	    -17.18202375	     -9.51450245	     12.35136977	      2.23105516	      5.46011834	     10.73597938	     -4.05306030	      0.18737819	     10.64928315	      0.94085124	     -9.51450245	     -3.70339574	     -1.97067815	     -4.72078304	    -10.00233424	     -9.09314759	     -2.06453888	     22.57282682	     90.00000001	      0.00000000	      0.00000000	      4.86675176	    -17.70413957	      3.77807596	     33.97105427	     90.00000001	      0.00000000	      0.00000000
      0.04000000	     -6.95777215	     -2.05573174	      3.70398063	     -1.74086039	      0.96365250	     -0.11189120	     21.74490643	      0.83189088	     -5.25547911	     56.68292117	      0.62723742	      0.98930360	      6.55590318	    -17.09520740	     -9.48890755	     11.47418966	      2.32396002	      5.38429798	     10.29602280	     -4.25852075	      0.17969950	     11.04549840	      1.12785111	     -9.48890755	     -3.52182079	     -1.80681041	     -4.99533895	    -10.51589741	     -8.92561027	     -2.12041884	     22.20161333	     90.00000001	      0.00000000	      0.00000000	      5.51874830	    -17.78722422	      3.84179976	     34.70773300	     90.00000001	      0.00000000	      0.00000000
      0.05000000	     -6.49602425	     -2.09912139	      3.80451571	     -1.73034089	      0.96447650	     -0.11250392	     22.31396052	      0.92988130	     -4.79528473	     55.31752806	      0.77828116	      0.96547300	      6.75286687	    -17.42228275	     -9.39290467	      9.54693518	      2.26444775	      5.91872229	      8.98679773	     -4.40362905	      0.15684921	     11.21171512	      1.32592956	     -9.39290467	     -4.00684493	     -1.59544975	     -5.17565614	    -10.72549913	     -8.58096474	     -3.10436808	     21.59035328	     90.00000001	      0.00000000	      0.00000000	      6.16150061	    -18.13841055	      4.62061217	     35.89493551	     90.00000001	      0.00000000	      0.00000000
      0.06000000	     -6.60342559	     -2.01338049	      3.94632800	     -1.72010937	      0.96415735	     -0.11331916	     23.58109387	      0.81106342	     -4.68822474	     53.94892336	      0.59851393	      0.94158634	      7.03527569	    -17.39855403	     -9.36967567	      8.74491914	      2.45603064	      5.84295681	      8.60204652	     -4.60197120	      0.15013403	     11.60844376	      1.48940817	     -9.36967567	     -3.81938015	     -1.56399050	     -5.46548347	    -11.22385078	     -8.42028798	     -3.20180704	     21.36893726	     90.00000001	      0.00000000	      0.00000000	      6.81911824	    -18.26812671	      4.69026834	     36.60748691	     90.00000001	      0.00000000	      0.00000000
      0.07000000	     -6.36369958	     -2.06020545	      4.09653630	     -1.70962984	      0.96417321	     -0.11398222	     24.25410849	      0.91670775	     -4.43245071	     52.14434476	      0.55139940	      0.91009050	      7.22641572	    -17.67213736	     -9.32762178	      7.14909433	      2.39444878	      6.42749584	      7.43119600	     -4.72387837	      0.12969884	     12.07222912	      1.94238143	     -9.32762178	     -4.06116860	     -1.34442581	     -5.69975137	    -11.55954919	     -8.19887451	     -3.72554448	     20.98833059	     90.00000001	      0.00000000	      0.00000000	      7.37884541	    -18.54251745	      5.21183463	     37.76190124	     90.00000001	      0.00000000	      0.00000000
      0.08000000	     -5.93093217	     -2.04263269	      4.29233014	     -1.69900704	      0.96424664	     -0.11459035	     24.55994577	      0.99402198	     -4.51961254	     49.99181572	      0.19945095	      0.87252178	      7.28197530	    -17.74330635	     -9.27306442	      5.43736619	      2.39865324	      6.74064690	      6.48444346	     -4.88351353	      0.11317489	     12.27356462	      2.05766911	     -9.27306442	     -4.50706518	     -1.20879120	     -5.98391724	    -11.87968975	     -7.92451638	     -4.38741957	     20.77352614	     90.00000001	      0.00000000	      0.00000000	      8.05107937	    -18.88214196	      5.84475838	     38.67152647	     90.00000001	      0.00000000	      0.00000000
      0.09000000	     -6.10192580	     -1.73737923	      4.41667708	     -1.68886421	      0.96309841	     -0.11538195	     25.68211838	      0.64715778	     -4.59138161	     48.06516536	     -0.17986952	      0.83889539	      7.42724993	    -17.57366612	     -9.25359391	      4.79678296	      2.83759133	      6.50349124	      6.31034830	     -5.05343780	      0.11013635	     12.59890091	      2.10781159	     -9.25359391	     -4.30651847	     -1.41587432	     -6.21773022	    -12.36841709	     -7.74977652	     -4.46184516	     20.71768837	     90.00000001	      0.00000000	      0.00000000	      8.72566585	    -19.00785001	      5.91735008	     39.26492446	     90.00000001	      0.00000000	      0.00000000
      0.10000000	     -5.39927775	     -1.87420407	      4.62167088	     -1.67803055	      0.96313628	     -0.11583038	     25.37330271	      1.01578196	     -4.69378217	     45.20746069	     -0.57870665	      0.78901904	      7.32093803	    -17.67187406	     -9.17460507	      2.56818799	      2.58674486	      7.27020683	      4.97939231	     -5.21438246	      0.08690679	     12.81762739	      2.15616176	     -9.17460507	     -5.06953359	     -1.07034386	     -6.46556013	    -12.60547778	     -7.54480252	     -5.20129259	     20.51469460	     90.00000001	      0.00000000	      0.00000000	      9.38788549	    -19.40913777	      6.81854432	     40.27540037	     90.00000001	      0.00000000	      0.00000000
      0.11000000	     -5.66256232	     -1.49528478	      4.73109595	     -1.66788520	      0.96141085	     -0.11648361	     26.42619075	      0.64080402	     -4.63969519	     42.89088673	     -0.92747157	      0.74858719	      7.40185524	    -17.42675535	     -9.15380788	      1.99673520	      3.11277168	      7.16231161	      4.77544925	     -5.41649016	      0.08334731	     13.26956755	      2.24873586	     -9.15380788	     -4.77739594	     -1.37993448	     -6.74054710	    -13.04506908	     -7.39502363	     -5.24111875	     20.51211624	     90.00000001	      0.00000000	      0.00000000	      9.98793185	    -19.58560662	      6.93527325	     40.84803231	     90.00000001	      0.00000000	      0.00000000
